<svg xmlns="http://www.w3.org/2000/svg" xmlns:xlink="http://www.w3.org/1999/xlink" width="256" height="256" version="1.1" viewBox="0 0 256 256" xml:space="preserve"><g style="stroke:none;stroke-width:0;stroke-dasharray:none;stroke-linecap:butt;stroke-linejoin:miter;stroke-miterlimit:10;fill:none;fill-rule:nonzero;opacity:1" transform="translate(1.4065934065934016 1.4065934065934016) scale(2.81 2.81)"><line x1="0" x2="0" y1="-23.964" y2="23.964" style="stroke:none;stroke-width:1;stroke-dasharray:none;stroke-linecap:butt;stroke-linejoin:miter;stroke-miterlimit:10;fill:#000;fill-rule:nonzero;opacity:1" transform="matrix(1 0 0 1 0 0)"/><path d="M 45 90 c -0.558 0 -1.011 -0.452 -1.011 -1.011 V 41.062 c 0 -0.558 0.453 -1.011 1.011 -1.011 s 1.011 0.453 1.011 1.011 v 47.927 C 46.011 89.548 45.558 90 45 90 z" style="stroke:none;stroke-width:1;stroke-dasharray:none;stroke-linecap:butt;stroke-linejoin:miter;stroke-miterlimit:10;fill:#fff;fill-rule:nonzero;opacity:1" stroke-linecap="round" transform="matrix(1 0 0 1 0 0)"/><circle cx="45.001" cy="20.531" r="20.531" style="stroke:none;stroke-width:1;stroke-dasharray:none;stroke-linecap:butt;stroke-linejoin:miter;stroke-miterlimit:10;fill:#f23f38;fill-rule:nonzero;opacity:1" transform="matrix(1 0 0 1 0 0)"/><circle cx="52.076" cy="13.456" r="5.056" style="stroke:none;stroke-width:1;stroke-dasharray:none;stroke-linecap:butt;stroke-linejoin:miter;stroke-miterlimit:10;fill:#ff9e9a;fill-rule:nonzero;opacity:1" transform="matrix(1 0 0 1 0 0)"/></g></svg>